<svg width="93" height="63" viewBox="0 0 93 63" fill="none" xmlns="http://www.w3.org/2000/svg">
<path d="M0 25C0 11.1929 11.1929 0 25 0H92.8V37.4C92.8 51.2071 81.6071 62.4 67.8 62.4H0V25Z" fill="#004503"/>
<path d="M31.1996 16H61.3196V46.12H31.1996V16Z" fill="#004503"/>
<path d="M46.5848 34.2504C45.539 34.2504 44.65 33.9284 43.9179 33.2842C43.1858 32.6401 42.8198 31.858 42.8198 30.9378V24.3126C42.8198 23.3925 43.1858 22.6103 43.9179 21.9662C44.65 21.3221 45.539 21.0001 46.5848 21.0001C47.6306 21.0001 48.5196 21.3221 49.2517 21.9662C49.9838 22.6103 50.3498 23.3925 50.3498 24.3126V30.9378C50.3498 31.858 49.9838 32.6401 49.2517 33.2842C48.5196 33.9284 47.6306 34.2504 46.5848 34.2504ZM45.3298 41.9798V38.5844C43.1545 38.3267 41.3556 37.471 39.9333 36.0171C38.511 34.5633 37.7998 32.8702 37.7998 30.9378H40.3098C40.3098 32.4653 40.9216 33.7673 42.1452 34.8439C43.3689 35.9205 44.8487 36.4588 46.5848 36.4588C48.3209 36.4588 49.8007 35.9205 51.0244 34.8439C52.248 33.7673 52.8598 32.4653 52.8598 30.9378H55.3698C55.3698 32.8702 54.6586 34.5633 53.2363 36.0171C51.814 37.471 50.0151 38.3267 47.8398 38.5844V41.9798H45.3298ZM46.5848 32.042C46.9404 32.042 47.2385 31.9362 47.479 31.7246C47.7195 31.5129 47.8398 31.2507 47.8398 30.9378V24.3126C47.8398 23.9998 47.7195 23.7375 47.479 23.5259C47.2385 23.3143 46.9404 23.2085 46.5848 23.2085C46.2292 23.2085 45.9312 23.3143 45.6906 23.5259C45.4501 23.7375 45.3298 23.9998 45.3298 24.3126V30.9378C45.3298 31.2507 45.4501 31.5129 45.6906 31.7246C45.9312 31.9362 46.2292 32.042 46.5848 32.042Z" fill="white"/>
</svg>
