<svg width="61" height="61" viewBox="0 0 61 61" fill="none" xmlns="http://www.w3.org/2000/svg">
<path d="M30.6002 60.8C13.8107 60.8 0.200195 47.1895 0.200195 30.4C0.200196 13.6105 13.8107 -7.3389e-07 30.6002 0C47.3897 7.3389e-07 61.0002 13.6105 61.0002 30.4C61.0002 47.1895 47.3896 60.8 30.6002 60.8Z" fill="#FAC17A"/>
<path d="M30.5997 55.2004C44.2963 55.2004 55.4004 44.097 55.4006 30.4005C55.4006 16.7038 44.2964 5.59963 30.5997 5.59963C16.9032 5.59984 5.79982 16.7039 5.79982 30.4005L0.200195 30.4L0.20996 29.6153C0.619599 13.4492 13.6494 0.4193 29.8155 0.00976562L30.6002 0C47.3897 7.3389e-07 61.0002 13.6105 61.0002 30.4L60.9904 31.1847C60.5743 47.6116 47.1274 60.8 30.6002 60.8L29.8155 60.7902C13.3887 60.3741 0.200403 46.927 0.200195 30.4L5.79982 30.4005C5.80003 44.0969 16.9033 55.2002 30.5997 55.2004Z" fill="#004503"/>
<path d="M30.364 36.5909C29.464 36.5909 28.6618 36.4363 27.9572 36.1272C27.2572 35.8181 26.7004 35.3886 26.2868 34.8386C25.8777 34.2841 25.6549 33.6409 25.6186 32.9091H27.3368C27.3731 33.3591 27.5277 33.7477 27.8004 34.075C28.0731 34.3977 28.4299 34.6477 28.8708 34.825C29.3118 35.0022 29.8004 35.0909 30.3368 35.0909C30.9368 35.0909 31.4686 34.9863 31.9322 34.7772C32.3958 34.5681 32.7595 34.2772 33.0231 33.9045C33.2868 33.5318 33.4186 33.1 33.4186 32.6091C33.4186 32.0954 33.2913 31.6431 33.0368 31.2522C32.7822 30.8568 32.4095 30.5477 31.9186 30.325C31.4277 30.1022 30.8277 29.9909 30.1186 29.9909H29.0004V28.4909H30.1186C30.6731 28.4909 31.1595 28.3909 31.5777 28.1909C32.0004 27.9909 32.3299 27.7091 32.5663 27.3454C32.8072 26.9818 32.9277 26.5545 32.9277 26.0636C32.9277 25.5909 32.8231 25.1795 32.614 24.8295C32.4049 24.4795 32.1095 24.2068 31.7277 24.0113C31.3504 23.8159 30.9049 23.7181 30.3913 23.7181C29.9095 23.7181 29.4549 23.8068 29.0277 23.9841C28.6049 24.1568 28.2595 24.4091 27.9913 24.7409C27.7231 25.0681 27.5777 25.4636 27.5549 25.9272H25.9186C25.9458 25.1954 26.1663 24.5545 26.5799 24.0045C26.9936 23.45 27.5345 23.0181 28.2027 22.7091C28.8754 22.4 29.614 22.2454 30.4186 22.2454C31.2822 22.2454 32.0231 22.4204 32.6413 22.7704C33.2595 23.1159 33.7345 23.5727 34.0663 24.1409C34.3981 24.7091 34.564 25.3227 34.564 25.9818C34.564 26.7681 34.3572 27.4386 33.9436 27.9931C33.5345 28.5477 32.9777 28.9318 32.2731 29.1454V29.2545C33.1549 29.4 33.8436 29.775 34.339 30.3795C34.8345 30.9795 35.0822 31.7227 35.0822 32.6091C35.0822 33.3681 34.8754 34.05 34.4618 34.6545C34.0527 35.2545 33.4936 35.7272 32.7845 36.0727C32.0754 36.4181 31.2686 36.5909 30.364 36.5909Z" fill="#004503"/>
</svg>
