<svg width="61" height="61" viewBox="0 0 61 61" fill="none" xmlns="http://www.w3.org/2000/svg">
<path d="M30.5997 60.8C13.8102 60.8 0.199706 47.1895 0.199707 30.4C0.199708 13.6105 13.8103 -7.3389e-07 30.5997 0C47.3892 7.3389e-07 60.9997 13.6105 60.9997 30.4C60.9997 47.1895 47.3892 60.8 30.5997 60.8Z" fill="#FFF3DF"/>
<path d="M30.5992 55.2004C44.2958 55.2004 55.3999 44.097 55.4001 30.4005C55.4001 16.7038 44.2959 5.59963 30.5992 5.59963C16.9027 5.59984 5.79933 16.7039 5.79933 30.4005L0.199707 30.4L0.209472 29.6153C0.619111 13.4492 13.6489 0.4193 29.815 0.00976562L30.5997 0C47.3892 7.3389e-07 60.9997 13.6105 60.9997 30.4L60.9899 31.1847C60.5738 47.6116 47.1269 60.8 30.5997 60.8L29.815 60.7902C13.3883 60.3741 0.199914 46.927 0.199707 30.4L5.79933 30.4005C5.79954 44.0969 16.9028 55.2002 30.5992 55.2004Z" fill="#004503"/>
<path d="M25.6454 36.4V35.1727L30.2544 30.1272C30.7954 29.5363 31.2408 29.0227 31.5908 28.5863C31.9408 28.1454 32.1999 27.7318 32.3681 27.3454C32.5408 26.9545 32.6272 26.5454 32.6272 26.1181C32.6272 25.6272 32.509 25.2022 32.2726 24.8431C32.0408 24.4841 31.7226 24.2068 31.3181 24.0113C30.9135 23.8159 30.459 23.7181 29.9544 23.7181C29.4181 23.7181 28.9499 23.8295 28.5499 24.0522C28.1544 24.2704 27.8476 24.5772 27.6294 24.9727C27.4158 25.3681 27.309 25.8318 27.309 26.3636H25.6999C25.6999 25.5454 25.8885 24.8272 26.2658 24.2091C26.6431 23.5909 27.1567 23.1091 27.8067 22.7636C28.4613 22.4181 29.1954 22.2454 30.009 22.2454C30.8272 22.2454 31.5522 22.4181 32.184 22.7636C32.8158 23.1091 33.3113 23.575 33.6704 24.1613C34.0294 24.7477 34.209 25.4 34.209 26.1181C34.209 26.6318 34.1158 27.1341 33.9294 27.625C33.7476 28.1113 33.4294 28.6545 32.9749 29.2545C32.5249 29.85 31.8999 30.5772 31.0999 31.4363L27.9635 34.7909V34.9H34.4544V36.4H25.6454Z" fill="#004503"/>
</svg>
