<svg width="37" height="18" viewBox="0 0 37 18" fill="none" xmlns="http://www.w3.org/2000/svg">
<path d="M3.40508 0.168249H4.80668V6.31225C4.80668 7.31065 4.76188 8.31545 4.67228 9.32665C4.59548 10.3378 4.43548 11.3362 4.19228 12.3218C3.94908 13.3074 3.57788 14.2547 3.07868 15.1635C2.57948 16.0723 1.90748 16.9298 1.06268 17.7362C0.998679 17.621 0.902679 17.4931 0.774679 17.3523C0.659479 17.2243 0.531479 17.0963 0.390679 16.9683C0.262679 16.8403 0.141079 16.7443 0.0258789 16.6803C0.806679 15.9379 1.42108 15.1507 1.86908 14.3187C2.31708 13.4867 2.64988 12.629 2.86748 11.7458C3.08508 10.8498 3.22588 9.94745 3.28988 9.03865C3.36668 8.11705 3.40508 7.20825 3.40508 6.31225V0.168249ZM1.12028 4.00825L2.21468 4.14265C2.20188 4.65465 2.15708 5.21785 2.08028 5.83225C2.01628 6.43385 1.92668 7.02905 1.81148 7.61785C1.69628 8.19385 1.55548 8.71225 1.38908 9.17305L0.275479 8.71225C0.429079 8.31545 0.563479 7.84825 0.678679 7.31065C0.793879 6.76025 0.883479 6.19705 0.947479 5.62105C1.02428 5.04505 1.08188 4.50745 1.12028 4.00825ZM6.49628 3.70105L7.72508 4.18105C7.45628 4.82105 7.16828 5.51225 6.86108 6.25465C6.55388 6.98425 6.25948 7.59865 5.97788 8.09785L5.09468 7.69465C5.24828 7.33625 5.41468 6.92025 5.59388 6.44665C5.77308 5.97305 5.93948 5.49305 6.09308 5.00665C6.25948 4.52025 6.39388 4.08505 6.49628 3.70105ZM4.40348 10.805C4.55708 10.933 4.78748 11.1506 5.09468 11.4578C5.40188 11.765 5.72828 12.0979 6.07388 12.4563C6.41948 12.8147 6.73308 13.1539 7.01468 13.4739C7.30908 13.7811 7.52028 14.0051 7.64828 14.1459L6.68828 15.2594C6.52188 15.029 6.29788 14.7474 6.01628 14.4146C5.73468 14.069 5.43388 13.7171 5.11388 13.3587C4.79388 12.9875 4.48668 12.6483 4.19228 12.3411C3.91068 12.0211 3.67388 11.765 3.48188 11.573L4.40348 10.805ZM7.72508 1.64665H17.6515V3.04825H7.72508V1.64665ZM12.7747 2.20345H14.2915V15.6243C14.2915 16.1107 14.2211 16.4882 14.0803 16.757C13.9395 17.0258 13.6963 17.2243 13.3507 17.3523C13.0051 17.4803 12.5251 17.5571 11.9107 17.5827C11.2963 17.6083 10.5347 17.621 9.62588 17.621C9.60028 17.4802 9.55548 17.3139 9.49148 17.1219C9.42748 16.9427 9.35708 16.7571 9.28028 16.5651C9.20348 16.3731 9.12028 16.2066 9.03068 16.0658C9.50428 16.0914 9.95868 16.1106 10.3939 16.1234C10.8419 16.1234 11.2259 16.1234 11.5459 16.1234C11.8787 16.1106 12.1155 16.1042 12.2563 16.1042C12.4483 16.0914 12.5827 16.053 12.6595 15.989C12.7363 15.9122 12.7747 15.7907 12.7747 15.6243V2.20345Z" fill="#004503"/>
<path d="M22.2211 9.65305H34.2787V10.9778H22.2211V9.65305ZM27.4243 5.35225H28.8835V10.325H27.4243V5.35225ZM22.1443 4.83385H35.2387V11.8418H33.7795V6.13945H22.1443V4.83385ZM21.4147 4.83385H22.8547V14.6834C22.8547 15.0802 22.9187 15.3875 23.0467 15.6051C23.1747 15.8227 23.4179 15.9762 23.7763 16.0658C24.1475 16.1426 24.6851 16.181 25.3891 16.181C25.5555 16.181 25.8243 16.181 26.1955 16.181C26.5667 16.181 27.0019 16.181 27.5011 16.181C28.0003 16.181 28.5187 16.181 29.0563 16.181C29.6067 16.181 30.1379 16.181 30.6499 16.181C31.1619 16.181 31.6163 16.181 32.0131 16.181C32.4227 16.181 32.7363 16.181 32.9539 16.181C33.5683 16.181 34.0355 16.1107 34.3555 15.9699C34.6755 15.8163 34.8995 15.5346 35.0275 15.125C35.1683 14.7026 35.2707 14.101 35.3347 13.3202C35.5267 13.4354 35.7571 13.5443 36.0259 13.6467C36.3075 13.7363 36.5507 13.8067 36.7555 13.8579C36.6531 14.8051 36.4867 15.5475 36.2563 16.0851C36.0387 16.6099 35.6739 16.9811 35.1619 17.1987C34.6627 17.4163 33.9331 17.5251 32.9731 17.5251C32.8451 17.5251 32.5891 17.5251 32.2051 17.5251C31.8339 17.5251 31.3795 17.5251 30.8419 17.5251C30.3171 17.5251 29.7667 17.5251 29.1907 17.5251C28.6275 17.5251 28.0835 17.5251 27.5587 17.5251C27.0467 17.5251 26.5987 17.5251 26.2147 17.5251C25.8435 17.5251 25.6003 17.5251 25.4851 17.5251C24.4483 17.5251 23.6355 17.4483 23.0467 17.2947C22.4579 17.1411 22.0355 16.8531 21.7795 16.4307C21.5363 16.0211 21.4147 15.4323 21.4147 14.6643V4.83385ZM24.6211 1.35865H30.6499V2.62585H23.9875L24.6211 1.35865ZM24.6787 0.0146484L26.2723 0.302648C25.8243 1.07065 25.2995 1.85145 24.6979 2.64505C24.0963 3.43865 23.4179 4.21945 22.6627 4.98745C21.9075 5.74265 21.0691 6.45945 20.1475 7.13785C20.0707 7.02265 19.9683 6.90105 19.8403 6.77305C19.7123 6.64505 19.5843 6.51705 19.4563 6.38905C19.3283 6.26105 19.2003 6.16505 19.0723 6.10105C19.9427 5.49945 20.7363 4.85305 21.4531 4.16185C22.1699 3.45785 22.7971 2.75385 23.3347 2.04985C23.8851 1.33305 24.3331 0.654649 24.6787 0.0146484ZM30.0355 1.35865H30.3619L30.6307 1.26265L31.6291 1.91545C31.3731 2.40185 31.0851 2.90105 30.7651 3.41305C30.4451 3.92505 30.1123 4.41145 29.7667 4.87225C29.4211 5.32025 29.0819 5.72345 28.7491 6.08185C28.6851 5.97945 28.5955 5.87065 28.4803 5.75545C28.3779 5.64025 28.2691 5.53145 28.1539 5.42905C28.0387 5.31385 27.9299 5.21785 27.8275 5.14105C28.1091 4.83385 28.3907 4.48185 28.6723 4.08505C28.9539 3.67545 29.2163 3.25945 29.4595 2.83705C29.7027 2.40185 29.8947 2.00505 30.0355 1.64665V1.35865Z" fill="#004503"/>
</svg>
