<svg width="61" height="61" viewBox="0 0 61 61" fill="none" xmlns="http://www.w3.org/2000/svg">
<path d="M30.3995 60.8C13.6101 60.8 -0.000489015 47.1895 -0.000488281 30.4C-0.000487547 13.6105 13.6101 -7.3389e-07 30.3995 0C47.189 7.3389e-07 60.7995 13.6105 60.7995 30.4C60.7995 47.1895 47.189 60.8 30.3995 60.8Z" fill="white"/>
<path d="M30.399 55.2004C44.0956 55.2004 55.1997 44.097 55.1999 30.4005C55.1999 16.7038 44.0957 5.59963 30.399 5.59963C16.7025 5.59984 5.59914 16.7039 5.59914 30.4005L-0.000488281 30.4L0.00927627 29.6153C0.418915 13.4492 13.4487 0.4193 29.6148 0.00976562L30.3995 0C47.189 7.3389e-07 60.7995 13.6105 60.7995 30.4L60.7897 31.1847C60.3736 47.6116 46.9267 60.8 30.3995 60.8L29.6148 60.7902C13.1881 60.3741 -0.000280976 46.927 -0.000488281 30.4L5.59914 30.4005C5.59935 44.0969 16.7026 55.2002 30.399 55.2004Z" fill="#004503"/>
<path d="M31.9539 22.4363V36.4H30.263V24.2091H30.1811L26.772 26.4727V24.7545L30.263 22.4363H31.9539Z" fill="#004503"/>
</svg>
