<svg width="154" height="55" viewBox="0 0 154 55" fill="none" xmlns="http://www.w3.org/2000/svg">
<path d="M0 27.7996C0 42.8218 12.1779 54.9996 27.2 54.9996H126.4C141.422 54.9996 153.6 42.8218 153.6 27.7996C153.6 12.7775 141.422 0.599609 126.4 0.599609H27.2C12.1778 0.599609 0 12.7775 0 27.7996Z" fill="white"/>
<path d="M38.024 23.8924H45.9152V25.3324H38.024V23.8924ZM29.9792 32.974H47.24V34.414H29.9792V32.974ZM37.1984 17.9596H38.7152V33.742H37.1984V17.9596Z" fill="#004503"/>
<path d="M53.3072 17.7484L54.6704 18.1516C54.248 19.2396 53.7552 20.3148 53.192 21.3772C52.6288 22.4268 52.0208 23.4188 51.368 24.3532C50.7152 25.2876 50.0432 26.1132 49.352 26.83C49.3008 26.7148 49.2304 26.5676 49.1408 26.3884C49.0512 26.2092 48.9488 26.03 48.8336 25.8508C48.7312 25.6588 48.6352 25.5116 48.5456 25.4092C49.1728 24.782 49.7808 24.0588 50.3696 23.2396C50.9584 22.4204 51.5024 21.5436 52.0016 20.6092C52.5136 19.662 52.9488 18.7084 53.3072 17.7484ZM51.272 22.6828L52.6352 21.3004L52.6544 21.3196V35.2972H51.272V22.6828ZM57.3008 27.1756H64.424V28.5196H57.3008V27.1756ZM63.944 27.1756H64.2128L64.4432 27.0796L65.4608 27.7132C65.0128 28.238 64.5072 28.8204 63.944 29.4604C63.3808 30.1004 62.7984 30.7468 62.1968 31.3996C61.608 32.0396 61.0384 32.6604 60.488 33.262L59.2976 32.5324C59.848 31.9564 60.4176 31.3484 61.0064 30.7084C61.5952 30.0684 62.1456 29.454 62.6576 28.8652C63.1824 28.2636 63.6112 27.758 63.944 27.3484V27.1756ZM59.2016 17.7676L60.6224 17.9596C60.4048 18.8172 60.168 19.726 59.912 20.686C59.656 21.6332 59.3936 22.5868 59.1248 23.5468C58.856 24.5068 58.5936 25.4156 58.3376 26.2732C58.0816 27.1308 57.8448 27.8796 57.6272 28.5196H56.0912C56.3344 27.8412 56.5968 27.0604 56.8784 26.1772C57.16 25.294 57.4352 24.366 57.704 23.3932C57.9856 22.4204 58.2544 21.454 58.5104 20.494C58.7664 19.5212 58.9968 18.6124 59.2016 17.7676ZM54.8816 19.8988H65.6336V21.2428H54.8816V19.8988ZM53.7872 23.5276H66.5168V24.8908H53.7872V23.5276ZM57.1856 31.3996L58.2416 30.5164C58.856 30.8876 59.4832 31.2972 60.1232 31.7452C60.776 32.1932 61.3776 32.6348 61.928 33.07C62.4912 33.5052 62.952 33.902 63.3104 34.2604L62.2352 35.3356C61.8896 34.9644 61.4352 34.542 60.872 34.0684C60.3088 33.6076 59.7072 33.1404 59.0672 32.6668C58.4272 32.1932 57.8 31.7708 57.1856 31.3996Z" fill="#004503"/>
<path d="M74.4464 17.6716L76.0016 18.1132C75.5792 18.7532 75.112 19.4124 74.6 20.0908C74.088 20.7692 73.6144 21.3452 73.1792 21.8188L72.008 21.3964C72.2896 21.0508 72.5776 20.6604 72.872 20.2252C73.1792 19.79 73.4736 19.3484 73.7552 18.9004C74.0368 18.4524 74.2672 18.0428 74.4464 17.6716ZM79.0544 19.1692L80.168 18.478C80.7568 18.8364 81.3584 19.2524 81.9728 19.726C82.6 20.1868 83.1888 20.654 83.7392 21.1276C84.2896 21.5884 84.7376 22.0236 85.0832 22.4332L83.8736 23.2204C83.5536 22.8236 83.1248 22.3884 82.5872 21.9148C82.0496 21.4284 81.4736 20.9484 80.8592 20.4748C80.2448 19.9884 79.6432 19.5532 79.0544 19.1692ZM69.1472 21.0124C69.992 20.9868 70.952 20.9676 72.0272 20.9548C73.1152 20.942 74.2672 20.9228 75.4832 20.8972C76.6992 20.8588 77.9472 20.8204 79.2272 20.782C80.52 20.7436 81.7936 20.7052 83.048 20.6668L82.9904 21.8764C81.352 21.9404 79.7008 22.0044 78.0368 22.0684C76.3856 22.1196 74.8112 22.1708 73.3136 22.222C71.816 22.2604 70.4848 22.2924 69.32 22.318L69.1472 21.0124ZM68.4176 23.8924H85.64V25.1596H68.4176V23.8924ZM77.5568 26.062L78.7088 26.6188C78.2224 26.99 77.6592 27.3356 77.0192 27.6556C76.392 27.9756 75.7328 28.27 75.0416 28.5388C74.3504 28.7948 73.6848 29.006 73.0448 29.1724C72.9424 29.0444 72.808 28.8972 72.6416 28.7308C72.488 28.5516 72.3344 28.4044 72.1808 28.2892C72.808 28.1356 73.4544 27.9436 74.12 27.7132C74.7984 27.4828 75.4384 27.2268 76.04 26.9452C76.6416 26.6636 77.1472 26.3692 77.5568 26.062ZM79.5536 28.3084L80.7056 28.8652C80.0912 29.3772 79.3552 29.8444 78.4976 30.2668C77.64 30.6764 76.7312 31.0412 75.7712 31.3612C74.8112 31.6812 73.8576 31.9564 72.9104 32.1868C72.808 32.0332 72.68 31.854 72.5264 31.6492C72.3856 31.4444 72.2448 31.2716 72.104 31.1308C73 30.9516 73.9152 30.7276 74.8496 30.4588C75.7968 30.1772 76.68 29.8572 77.4992 29.4988C78.3184 29.1276 79.0032 28.7308 79.5536 28.3084ZM82.0688 30.478L83.3168 31.0732C82.536 31.8796 81.544 32.5708 80.3408 33.1468C79.1504 33.71 77.8192 34.1772 76.3472 34.5484C74.8752 34.9324 73.32 35.2332 71.6816 35.4508C71.6048 35.2588 71.5024 35.0476 71.3744 34.8172C71.2592 34.5996 71.1376 34.4076 71.0096 34.2412C72.5712 34.0748 74.056 33.8316 75.464 33.5116C76.8848 33.1788 78.1648 32.7628 79.304 32.2636C80.4432 31.7644 81.3648 31.1692 82.0688 30.478ZM75.2336 21.6652L76.6352 22.0108C75.8672 23.8924 74.8048 25.5052 73.448 26.8492C72.0912 28.1804 70.5488 29.2556 68.8208 30.0748C68.7568 29.9724 68.6608 29.8508 68.5328 29.71C68.4048 29.5692 68.2704 29.4348 68.1296 29.3068C67.9888 29.166 67.8672 29.0508 67.7648 28.9612C69.4928 28.2444 71.0032 27.2716 72.296 26.0428C73.5888 24.814 74.568 23.3548 75.2336 21.6652ZM80.0528 24.1804C80.4752 24.8204 81.0064 25.4476 81.6464 26.062C82.2864 26.6636 82.9904 27.2012 83.7584 27.6748C84.5264 28.1484 85.288 28.5388 86.0432 28.846C85.9408 28.9356 85.8256 29.0508 85.6976 29.1916C85.5824 29.3196 85.4672 29.454 85.352 29.5948C85.2496 29.7356 85.16 29.8636 85.0832 29.9788C84.3024 29.6204 83.5152 29.166 82.7216 28.6156C81.9408 28.0652 81.2112 27.4508 80.5328 26.7724C79.8672 26.094 79.304 25.3836 78.8432 24.6412L80.0528 24.1804Z" fill="#004503"/>
<path d="M87.848 23.3548H104.379V24.622H87.848V23.3548ZM89.3264 19.9372H100.232V21.166H89.3264V19.9372ZM94.2032 17.6716H95.624V23.9692H94.2032V17.6716ZM101.422 25.8316L102.344 26.83C101.538 27.0476 100.61 27.2396 99.56 27.406C98.5232 27.5724 97.4416 27.7196 96.3152 27.8476C95.2016 27.9756 94.12 28.078 93.0704 28.1548C93.0448 28.0012 92.9936 27.8284 92.9168 27.6364C92.8528 27.4316 92.7888 27.2652 92.7248 27.1372C93.48 27.0732 94.2608 26.9964 95.0672 26.9068C95.8736 26.8172 96.6672 26.7212 97.448 26.6188C98.2288 26.5036 98.9584 26.382 99.6368 26.254C100.328 26.1132 100.923 25.9724 101.422 25.8316ZM102.421 18.5548L103.592 19.2268C102.299 20.7884 100.814 22.2284 99.1376 23.5468C97.4736 24.8524 95.688 26.03 93.7808 27.0796C91.8864 28.1164 89.9536 29.0124 87.9824 29.7676C87.9184 29.6652 87.8288 29.5436 87.7136 29.4028C87.5984 29.2492 87.4832 29.102 87.368 28.9612C87.2528 28.8204 87.144 28.7052 87.0416 28.6156C89.0512 27.9244 90.9968 27.0796 92.8784 26.0812C94.7728 25.07 96.5328 23.9308 98.1584 22.6636C99.7968 21.3964 101.218 20.0268 102.421 18.5548ZM92.4944 25.8892L93.9344 26.0428C93.7936 26.67 93.64 27.3292 93.4736 28.0204C93.3072 28.7116 93.1408 29.3836 92.9744 30.0364C92.808 30.6764 92.648 31.2396 92.4944 31.726L91.0544 31.5148C91.2208 31.0284 91.3872 30.4652 91.5536 29.8252C91.7328 29.1724 91.9056 28.5004 92.072 27.8092C92.2384 27.118 92.3792 26.478 92.4944 25.8892ZM100.866 29.5564H102.325C102.325 29.5564 102.318 29.6012 102.306 29.6908C102.306 29.7676 102.299 29.8572 102.286 29.9596C102.286 30.062 102.274 30.1452 102.248 30.2092C102.107 31.1564 101.96 31.9436 101.806 32.5708C101.653 33.1852 101.486 33.678 101.307 34.0492C101.141 34.4204 100.955 34.702 100.75 34.894C100.546 35.0732 100.328 35.1948 100.098 35.2588C99.88 35.3228 99.5984 35.3548 99.2528 35.3548C98.9712 35.3804 98.5616 35.3868 98.024 35.374C97.4992 35.3612 96.936 35.342 96.3344 35.3164C96.3216 35.1116 96.2704 34.8812 96.1808 34.6252C96.104 34.382 96.008 34.1644 95.8928 33.9724C96.4944 34.0364 97.0704 34.0748 97.6208 34.0876C98.184 34.1132 98.5808 34.126 98.8112 34.126C99.0032 34.126 99.1632 34.1132 99.2912 34.0876C99.4192 34.062 99.5344 34.0108 99.6368 33.934C99.88 33.742 100.098 33.326 100.29 32.686C100.494 32.046 100.686 31.0668 100.866 29.7484V29.5564ZM92.2832 29.5564H101.269V30.7852H91.976L92.2832 29.5564Z" fill="#004503"/>
<path d="M107.413 18.5164H123.406V35.3356H121.966V19.822H108.795V35.3356H107.413V18.5164ZM108.219 33.2428H122.792V34.5292H108.219V33.2428ZM113 28.4428L113.614 27.5596C114.126 27.662 114.664 27.7964 115.227 27.9628C115.79 28.1164 116.328 28.2892 116.84 28.4812C117.365 28.6604 117.806 28.8332 118.165 28.9996L117.57 29.9788C117.211 29.7996 116.77 29.614 116.245 29.422C115.733 29.2172 115.189 29.0316 114.613 28.8652C114.05 28.6988 113.512 28.558 113 28.4428ZM113.749 20.206L114.958 20.6284C114.6 21.2044 114.171 21.774 113.672 22.3372C113.186 22.8876 112.667 23.3996 112.117 23.8732C111.579 24.3468 111.042 24.7628 110.504 25.1212C110.44 25.0316 110.344 24.9356 110.216 24.8332C110.088 24.718 109.96 24.6092 109.832 24.5068C109.704 24.4044 109.589 24.3212 109.486 24.2572C110.306 23.7708 111.099 23.1756 111.867 22.4716C112.635 21.7548 113.262 20.9996 113.749 20.206ZM118.875 21.742H119.144L119.355 21.6844L120.181 22.1644C119.694 22.958 119.061 23.6876 118.28 24.3532C117.512 25.006 116.654 25.5884 115.707 26.1004C114.773 26.6124 113.8 27.054 112.789 27.4252C111.79 27.7964 110.805 28.0972 109.832 28.3276C109.781 28.2124 109.717 28.078 109.64 27.9244C109.576 27.7708 109.499 27.63 109.41 27.502C109.32 27.3612 109.23 27.246 109.141 27.1564C110.088 26.9644 111.048 26.7084 112.021 26.3884C112.994 26.0684 113.922 25.6844 114.805 25.2364C115.701 24.7884 116.501 24.2892 117.205 23.7388C117.909 23.1884 118.466 22.5932 118.875 21.9532V21.742ZM112.904 22.798C113.467 23.4636 114.21 24.078 115.131 24.6412C116.053 25.2044 117.07 25.6908 118.184 26.1004C119.31 26.4972 120.45 26.8044 121.602 27.022C121.474 27.1372 121.326 27.3036 121.16 27.5212C121.006 27.7388 120.885 27.9372 120.795 28.1164C119.63 27.8604 118.478 27.502 117.339 27.0412C116.213 26.5804 115.17 26.03 114.21 25.39C113.262 24.75 112.475 24.046 111.848 23.278L112.904 22.798ZM113.307 21.742H119.317V22.8556H112.539L113.307 21.742ZM111.08 30.8812L111.752 29.902C112.405 29.9788 113.083 30.0812 113.787 30.2092C114.504 30.3244 115.214 30.4588 115.918 30.6124C116.622 30.7532 117.282 30.9068 117.896 31.0732C118.523 31.2396 119.067 31.3996 119.528 31.5532L118.894 32.6284C118.28 32.4108 117.531 32.1932 116.648 31.9756C115.765 31.7452 114.837 31.534 113.864 31.342C112.891 31.1372 111.963 30.9836 111.08 30.8812Z" fill="#004503"/>
</svg>
